<?xml version="1.0" standalone="no"?>
<!DOCTYPE svg PUBLIC "-//W3C//DTD SVG 20010904//EN"
 "http://www.w3.org/TR/2001/REC-SVG-20010904/DTD/svg10.dtd">
<svg version="1.0" xmlns="http://www.w3.org/2000/svg"
 width="400.000000pt" height="84.000000pt" viewBox="0 0 400.000000 84.000000"
 preserveAspectRatio="xMidYMid meet">

<g transform="translate(0.000000,84.000000) scale(0.100000,-0.100000)"
fill="#7c8ba0" stroke="none">
<path d="M502 731 c-68 -23 -183 -102 -222 -151 -29 -36 -33 -38 -99 -42 -57
-3 -75 -8 -97 -28 -22 -21 -74 -108 -74 -125 0 -3 33 -5 73 -5 l72 0 82 -82
82 -83 3 -78 3 -77 61 36 c74 44 94 75 94 147 0 54 1 56 64 120 96 97 156 234
156 353 l0 34 -72 0 c-44 -1 -94 -8 -126 -19z m18 -151 c32 -32 25 -66 -18
-89 -55 -29 -101 57 -50 93 30 21 44 20 68 -4z"/>
<path d="M809 537 c-125 -83 -65 -257 90 -257 37 0 60 -5 73 -17 24 -22 36 -8
14 16 -17 19 -17 20 3 31 50 26 67 128 32 186 -39 63 -147 85 -212 41z m165
-26 c28 -28 31 -38 31 -90 0 -49 -4 -64 -24 -85 -22 -24 -26 -25 -42 -10 -10
9 -19 11 -23 5 -4 -5 -2 -12 4 -16 17 -11 1 -25 -28 -25 -37 0 -90 34 -102 66
-15 38 -12 101 5 134 35 67 123 77 179 21z"/>
<path d="M1060 465 c0 -148 23 -185 115 -185 38 0 52 5 76 29 29 29 29 30 27
143 l-2 113 -5 -113 c-6 -109 -7 -115 -34 -138 -39 -33 -81 -31 -118 5 -28 29
-29 32 -29 135 0 88 -3 106 -15 106 -12 0 -15 -17 -15 -95z"/>
<path d="M1347 423 c-31 -75 -55 -138 -52 -141 2 -3 13 15 23 39 l19 45 69 -2
69 -1 23 -42 c13 -22 30 -41 37 -41 14 0 13 5 -79 203 -19 42 -39 77 -43 77
-5 0 -34 -62 -66 -137z m97 15 l26 -58 -66 0 c-36 0 -63 3 -61 8 3 4 17 34 31
66 16 37 30 56 36 50 5 -5 20 -35 34 -66z"/>
<path d="M1570 422 c0 -88 4 -142 10 -142 6 0 10 42 10 107 l0 108 78 -75 c42
-42 92 -89 110 -105 l32 -29 -2 140 c-2 134 -2 135 -5 32 -2 -60 -7 -108 -11
-108 -4 0 -55 48 -114 107 l-108 108 0 -143z"/>
<path d="M1830 550 c0 -5 25 -10 55 -10 l55 0 0 -130 c0 -109 2 -130 15 -130
13 0 15 21 15 130 l0 130 55 0 c30 0 55 5 55 10 0 6 -48 10 -125 10 -77 0
-125 -4 -125 -10z"/>
<path d="M2110 420 c0 -118 2 -140 15 -140 13 0 15 22 15 140 0 118 -2 140
-15 140 -13 0 -15 -22 -15 -140z"/>
<path d="M2220 420 c0 -118 2 -140 15 -140 12 0 15 14 15 70 l0 70 60 0 c37 0
60 4 60 11 0 7 -21 10 -57 7 l-58 -3 -3 53 -3 52 70 0 c41 0 71 4 71 10 0 6
-35 10 -85 10 l-85 0 0 -140z"/>
<path d="M2430 420 c0 -118 2 -140 15 -140 13 0 15 22 15 140 0 118 -2 140
-15 140 -13 0 -15 -22 -15 -140z"/>
<path d="M2540 420 l0 -140 85 0 c50 0 85 4 85 10 0 6 -30 10 -70 10 l-70 0 0
60 0 60 60 0 c37 0 60 4 60 11 0 7 -21 10 -57 7 l-58 -3 -3 53 -3 52 70 0 c41
0 71 4 71 10 0 6 -35 10 -85 10 l-85 0 0 -140z"/>
<path d="M2740 420 l0 -140 58 0 c85 1 138 28 163 85 47 107 -28 195 -166 195
l-55 0 0 -140z m150 101 c38 -27 51 -60 47 -114 -6 -64 -38 -97 -104 -107 -26
-4 -51 -6 -55 -3 -9 5 -11 237 -2 245 10 11 89 -4 114 -21z"/>
<path d="M3100 540 c-25 -25 -26 -72 -2 -92 9 -8 43 -27 74 -41 44 -20 59 -32
64 -53 9 -35 -23 -64 -70 -64 -36 0 -76 24 -76 46 0 8 -4 14 -10 14 -19 0 -10
-29 16 -49 49 -38 146 -23 165 26 18 47 -3 75 -84 114 -80 38 -96 65 -55 93
34 24 75 20 103 -10 18 -20 25 -23 25 -11 0 45 -112 65 -150 27z"/>
<path d="M3310 420 l0 -140 85 0 c50 0 85 4 85 10 0 6 -30 10 -70 10 l-70 0 0
60 0 60 60 0 c38 0 60 4 60 11 0 8 -18 10 -60 5 l-60 -7 0 56 0 55 70 0 c40 0
70 4 70 10 0 6 -35 10 -85 10 l-85 0 0 -140z"/>
<path d="M3500 420 l0 -140 90 0 c53 0 90 4 90 10 0 6 -32 10 -75 10 l-75 0 0
130 c0 109 -2 130 -15 130 -13 0 -15 -22 -15 -140z"/>
<path d="M3700 420 c0 -118 2 -140 15 -140 12 0 15 14 15 70 l0 70 67 0 c81 0
77 12 -4 14 l-58 1 -3 53 -3 52 75 0 c44 0 76 4 76 10 0 6 -37 10 -90 10 l-90
0 0 -140z"/>
<path d="M105 240 c-16 -18 -57 -121 -51 -127 7 -7 98 27 126 47 l32 23 -38
38 c-21 22 -41 39 -44 39 -4 0 -15 -9 -25 -20z"/>
</g>
</svg>
